<?xml version="1.0" standalone="no"?>
<!DOCTYPE svg PUBLIC "-//W3C//DTD SVG 20010904//EN"
 "http://www.w3.org/TR/2001/REC-SVG-20010904/DTD/svg10.dtd">
<svg version="1.0" xmlns="http://www.w3.org/2000/svg"
 width="300.000000pt" height="300.000000pt" viewBox="0 0 300.000000 300.000000"
 preserveAspectRatio="xMidYMid meet">

<g transform="translate(0.000000,300.000000) scale(0.100000,-0.100000)"
fill="#000000" stroke="none">
<path d="M795 2300 c-109 -23 -199 -74 -270 -152 -131 -146 -72 -342 98 -325
41 3 56 11 79 36 38 42 39 106 3 149 -41 48 -31 69 51 110 149 75 351 37 411
-77 29 -56 32 -150 5 -201 -34 -64 -97 -84 -407 -125 -154 -21 -239 -59 -313
-140 -68 -74 -86 -129 -80 -249 5 -109 31 -169 101 -233 84 -77 188 -113 334
-113 155 0 263 39 351 127 l53 52 10 -27 c17 -45 58 -91 102 -115 36 -19 58
-22 143 -22 94 0 104 2 149 30 69 43 94 96 102 214 l6 92 31 -63 c41 -83 142
-186 223 -227 120 -60 285 -78 422 -46 197 47 359 213 417 430 21 81 29 281
15 375 -50 319 -261 510 -566 510 -113 0 -187 -15 -274 -57 -102 -49 -186
-134 -240 -244 -62 -128 -75 -189 -76 -364 l0 -150 -37 3 c-26 3 -42 -2 -57
-17 -19 -19 -21 -33 -21 -133 0 -132 -20 -193 -64 -204 -41 -10 -74 4 -93 39
-16 28 -19 75 -24 427 -4 282 -9 406 -18 435 -44 136 -133 215 -281 251 -60
15 -222 17 -285 4z m1605 -176 c69 -21 149 -96 185 -175 40 -90 58 -212 52
-344 -14 -267 -120 -419 -320 -456 -113 -21 -215 7 -300 81 -91 81 -137 219
-137 414 0 136 16 219 57 303 31 62 94 133 142 157 89 46 207 54 321 20z
m-1219 -671 c-13 -105 -37 -160 -96 -217 -64 -63 -136 -88 -250 -90 -104 -1
-152 13 -202 57 -44 39 -63 82 -63 143 0 61 25 110 74 145 51 37 111 54 261
74 147 18 178 27 235 63 l45 28 3 -60 c2 -33 -2 -97 -7 -143z"/>
<path d="M223 1220 c-38 -23 -53 -48 -53 -89 0 -61 33 -101 96 -115 59 -13
129 32 140 91 18 98 -94 168 -183 113z"/>
</g>
</svg>
